<?xml version="1.0" encoding="UTF-8" ?>
<!DOCTYPE svg PUBLIC "-//W3C//DTD SVG 1.1//EN" "http://www.w3.org/Graphics/SVG/1.1/DTD/svg11.dtd">
<svg width="200pt" height="200pt" viewBox="0 0 200 200" version="1.1" xmlns="http://www.w3.org/2000/svg">
<path fill="#000000" d=" M 92.62 8.63 C 93.82 6.02 94.68 3.26 96.08 0.75 C 98.72 0.40 101.40 0.66 104.05 0.82 C 105.02 3.43 106.06 6.01 107.17 8.57 C 110.32 8.72 113.52 10.02 116.63 9.55 C 118.66 7.40 120.26 4.90 122.02 2.53 C 124.54 2.81 126.97 3.57 129.35 4.44 C 129.66 7.39 130.10 10.33 130.65 13.24 C 133.06 15.19 136.42 15.74 139.14 17.28 C 141.71 15.31 144.27 13.34 146.86 11.40 C 148.85 12.66 150.87 13.86 152.92 15.02 C 152.62 18.12 152.21 21.21 151.72 24.29 C 154.16 26.30 156.70 28.20 159.13 30.24 C 162.10 29.05 165.06 27.86 167.99 26.58 C 169.57 28.15 171.26 29.65 172.68 31.39 C 172.59 34.52 170.66 37.39 169.48 40.26 C 171.26 42.78 173.20 45.19 174.94 47.73 C 177.02 47.65 179.09 47.49 181.16 47.22 C 181.96 47.09 183.55 46.82 184.35 46.69 C 185.87 48.68 187.05 50.90 188.38 53.01 C 186.20 55.45 184.26 58.08 182.48 60.81 C 183.99 63.35 184.61 66.32 186.12 68.83 C 189.00 70.02 192.35 69.85 195.41 70.43 C 196.12 72.67 196.75 74.93 197.41 77.18 C 194.93 79.46 192.09 81.30 189.68 83.66 C 190.58 86.45 190.75 89.40 190.89 92.31 C 193.50 93.60 196.20 94.73 198.93 95.77 C 199.51 98.57 199.35 101.42 198.74 104.20 C 198.26 104.30 197.31 104.51 196.84 104.61 C 194.98 105.47 193.04 106.14 191.28 107.18 C 190.51 110.15 190.12 113.40 190.28 116.49 C 192.33 118.61 194.95 120.06 197.12 122.05 C 197.17 124.51 196.07 126.85 195.38 129.19 C 193.28 129.41 191.17 129.61 189.10 130.03 C 188.04 130.21 186.99 130.39 185.93 130.56 C 184.91 133.45 183.80 136.30 182.49 139.08 C 184.50 141.66 186.44 144.30 188.44 146.89 C 186.99 148.69 185.83 150.67 184.79 152.73 C 181.63 152.66 178.49 152.26 175.41 151.58 C 173.39 154.01 171.52 156.58 169.53 159.04 C 170.75 161.97 171.90 164.92 173.04 167.89 C 171.40 169.62 169.73 171.32 168.02 172.97 C 164.86 172.04 161.86 169.70 158.45 170.19 C 156.15 171.66 154.08 173.46 151.79 174.96 C 151.97 178.17 152.97 181.39 152.66 184.59 C 150.76 185.87 148.69 187.57 146.36 187.70 C 143.82 186.09 141.52 184.15 139.14 182.32 C 136.36 183.69 133.50 184.88 130.58 185.93 C 130.44 187.35 130.31 188.77 130.20 190.19 L 129.79 190.77 C 129.64 192.26 129.49 193.76 129.34 195.26 C 127.11 195.86 124.91 196.60 122.76 197.45 C 120.39 195.00 118.48 192.15 116.20 189.63 C 113.38 190.42 110.46 190.63 107.55 190.74 C 106.11 193.25 105.02 195.94 104.15 198.70 C 101.41 199.64 98.53 199.47 95.76 198.76 C 94.81 196.03 93.75 193.34 92.41 190.78 C 89.89 190.60 87.38 190.38 84.86 190.20 C 84.64 189.97 84.20 189.51 83.99 189.28 C 81.79 191.63 79.78 194.15 78.03 196.85 C 75.49 196.80 73.03 196.14 70.65 195.32 C 70.06 192.21 69.55 189.09 69.29 185.94 C 66.39 184.88 63.54 183.71 60.79 182.31 C 58.31 184.18 55.81 186.03 53.38 187.96 C 51.35 187.14 49.43 186.08 47.50 185.05 C 47.34 184.58 47.01 183.65 46.85 183.19 C 47.49 180.45 47.81 177.66 47.95 174.86 C 45.32 173.25 43.12 171.04 40.48 169.48 C 37.82 170.39 35.32 171.69 32.72 172.75 C 32.30 172.66 31.46 172.49 31.04 172.40 C 29.65 170.82 28.20 169.30 26.75 167.79 C 27.90 164.98 29.28 162.24 29.95 159.27 C 28.70 156.40 26.50 153.92 24.31 151.71 C 21.24 152.15 18.17 152.68 15.06 152.75 C 14.03 150.70 12.85 148.73 11.50 146.88 C 13.41 144.22 15.37 141.61 17.40 139.05 C 16.04 136.26 14.93 133.36 13.81 130.47 C 12.83 130.36 11.85 130.24 10.87 130.12 C 8.79 129.63 6.67 129.40 4.54 129.24 C 3.60 126.93 3.04 124.49 2.55 122.05 C 4.94 120.06 7.91 118.56 9.79 116.06 C 9.58 113.03 9.14 110.02 8.72 107.01 C 6.27 106.06 3.87 104.99 1.37 104.19 C 0.49 101.52 0.47 98.71 0.60 95.94 C 3.19 94.82 5.87 93.89 8.44 92.70 C 9.55 89.61 9.39 86.21 9.81 82.98 C 7.28 81.17 4.79 79.31 2.44 77.27 C 3.07 74.96 3.68 72.66 4.48 70.41 C 7.51 70.04 10.52 69.56 13.56 69.25 C 14.93 66.48 15.93 63.53 17.39 60.80 C 15.58 58.11 13.66 55.49 11.51 53.05 C 12.81 50.89 13.94 48.62 15.55 46.68 C 18.66 47.20 21.78 47.71 24.94 47.72 C 26.66 45.17 28.63 42.80 30.37 40.27 C 29.03 37.51 27.95 34.64 26.70 31.83 C 28.40 30.01 30.12 28.23 31.93 26.52 C 34.82 27.94 37.82 29.15 40.89 30.15 C 43.05 28.21 45.48 26.59 47.68 24.71 C 48.21 21.50 47.00 18.23 47.00 14.98 C 49.04 13.81 51.06 12.62 53.07 11.41 C 55.59 13.41 58.16 15.33 60.73 17.26 C 63.60 15.97 66.54 14.83 69.37 13.45 C 69.56 10.40 70.10 7.40 70.58 4.38 C 72.92 3.54 75.33 2.85 77.81 2.52 C 79.54 4.92 81.37 7.25 83.04 9.69 C 86.27 9.67 89.42 8.93 92.62 8.63 Z" />
<path fill="#f9f9f9" d=" M 89.53 30.68 C 97.70 29.89 106.00 29.68 114.11 31.17 C 128.65 34.09 142.20 41.79 152.09 52.85 C 164.64 66.56 171.25 85.49 169.79 104.03 C 169.16 118.87 163.21 133.33 153.65 144.64 C 142.51 157.92 126.29 166.96 109.03 168.92 C 101.20 170.12 93.29 169.21 85.52 168.09 C 69.85 164.80 55.43 155.90 45.47 143.37 C 37.30 133.32 32.28 120.92 30.63 108.11 C 29.35 103.45 30.58 98.71 30.26 93.98 C 31.66 80.60 36.51 67.50 44.87 56.90 C 55.68 42.90 71.99 33.15 89.53 30.68 Z" />
<path fill="#000000" d=" M 53.00 68.00 C 61.99 68.03 70.98 67.94 79.97 68.04 C 85.29 68.12 91.17 70.09 93.91 74.98 C 96.46 78.84 96.16 83.64 95.91 88.05 C 95.20 92.79 91.82 97.78 86.77 98.39 C 90.01 99.37 93.34 100.85 95.24 103.81 C 99.11 109.71 98.69 117.58 95.92 123.84 C 93.31 129.51 86.97 132.40 80.98 132.61 C 71.66 132.67 62.33 132.60 53.00 132.63 C 52.99 111.09 53.00 89.54 53.00 68.00 Z" />
<path fill="#000000" d=" M 104.70 68.00 C 113.46 68.02 122.22 67.96 130.97 68.02 C 135.69 68.04 140.78 69.30 144.06 72.90 C 148.67 78.41 149.04 86.69 145.88 92.99 C 144.45 95.79 141.77 97.81 138.69 98.47 C 142.42 99.50 146.05 101.67 147.77 105.27 C 150.55 110.93 150.13 117.84 147.69 123.54 C 145.11 129.59 138.33 132.58 132.05 132.63 C 122.93 132.61 113.82 132.69 104.70 132.57 C 104.71 111.05 104.70 89.52 104.70 68.00 Z" />
<path fill="#f9f9f9" d=" M 70.01 80.60 C 72.16 80.71 74.44 80.32 76.50 81.16 C 80.13 84.01 80.00 90.75 75.76 92.93 C 73.85 93.22 71.92 93.10 70.00 93.13 C 70.00 88.95 70.00 84.77 70.01 80.60 Z" />
<path fill="#f9f9f9" d=" M 121.90 80.60 C 124.09 80.76 126.53 80.16 128.50 81.41 C 131.68 84.45 131.47 90.44 127.68 92.91 C 125.77 93.23 123.82 93.09 121.90 93.13 C 121.89 88.95 121.89 84.78 121.90 80.60 Z" />
<path fill="#f9f9f9" d=" M 70.00 104.99 C 73.07 104.99 76.82 104.34 78.82 107.32 C 81.31 111.11 80.85 117.45 76.58 119.86 C 74.41 120.28 72.19 120.07 70.00 120.12 C 70.00 115.08 70.00 110.03 70.00 104.99 Z" />
<path fill="#f9f9f9" d=" M 121.89 104.99 C 124.71 105.08 128.11 104.31 130.16 106.82 C 133.15 110.64 132.78 117.64 128.04 119.92 C 126.01 120.22 123.94 120.10 121.90 120.12 C 121.89 115.08 121.89 110.03 121.89 104.99 Z" />
</svg>
